<?xml version="1.0" encoding="UTF-8"?>
<svg width="180px" height="27px" viewBox="0 0 180 27" version="1.1" xmlns="http://www.w3.org/2000/svg" xmlns:xlink="http://www.w3.org/1999/xlink">
    <!-- Generator: Sketch 52.3 (67297) - http://www.bohemiancoding.com/sketch -->
    <title>Logos / Kenwood</title>
    <desc>Created with Sketch.</desc>
    <defs>
        <polygon id="path-1" points="0.184616468 0.623447318 25.6405207 0.623447318 25.6405207 26 0.184616468 26"></polygon>
        <polygon id="path-3" points="0.5161 0.618855882 25.9486131 0.618855882 25.9486131 26.2058824 0.5161 26.2058824"></polygon>
    </defs>
    <g id="Symbols" stroke="none" stroke-width="1" fill="none" fill-rule="evenodd">
        <g id="Graphics-/-Desktop-/-Header-/-Shop" transform="translate(-630.000000, -57.000000)">
            <g id="Header">
                <g id="Logos-/-Kenwood" transform="translate(630.000000, 57.000000)">
                    <g id="Logo">
                        <path d="M25,25.9992149 L44,26 L44,22.4183323 L29.2446131,22.4183323 L29.2446131,15.464621 C30.127945,15.464621 42.5981387,15.4669763 42.5981387,15.4669763 L42.5981387,11.8272106 L29.2446131,11.8272106 L29.2446131,5.59815499 C30.1327241,5.59815499 43.6113021,5.60051032 43.6113021,5.60051032 L43.6113021,2.01020642 L25,2 L25,25.9992149 Z" id="Fill-1" fill="#1D1D1B"></path>
                        <path d="M63.6598861,19.4043764 C62.1196094,17.1930134 51.5362083,2.00235502 51.5362083,2.00235502 L47,2 L47,25.99529 L51.3417413,25.99529 L51.3417413,8.73927976 C52.8795769,10.9475027 63.3653377,25.997645 63.3653377,25.997645 L68,26 L68,2.00628005 L63.6598861,2.00628005 L63.6598861,19.4043764 Z" id="Fill-3" fill="#1D1D1B"></path>
                        <path d="M70,2 L77.2348311,25.9984295 L81.6350248,25.9984295 C81.6350248,25.9984295 86.2163982,11.1715744 87.0111178,8.59678053 C87.8050139,11.1715744 92.3732106,26 92.3732106,26 L96.7931694,26 L104,2.00549666 L99.1765048,2.00392619 C99.1765048,2.00392619 95.285261,16.3352964 94.5448952,19.057715 C93.7131161,16.3541421 89.2931573,2.00392619 89.2931573,2.00392619 L84.7397844,2.00392619 C84.7397844,2.00392619 80.3115902,16.3258736 79.4789875,19.0184531 C78.7402689,16.3046722 74.8506722,2 74.8506722,2 L70,2 Z" id="Fill-5" fill="#1D1D1B"></path>
                        <g id="Group-9" transform="translate(131.000000, 0.000000)">
                            <mask id="mask-2" fill="white">
                                <use xlink:href="#path-1"></use>
                            </mask>
                            <g id="Clip-8"></g>
                            <path d="M7.33395,6.43169091 C8.785075,5.05211515 10.7212625,4.36350909 13.0921375,4.39029697 C20.667075,4.43914545 21.21795,11.3173273 21.2082,13.4241152 C21.1943875,15.5112061 20.5687625,22.3216303 13.0303875,22.3216303 C10.5668875,22.3216303 8.586825,21.6070242 7.14545,20.2006606 C5.554575,18.6493273 4.6437625,16.2084788 4.6437625,13.4934485 L4.6437625,13.4296303 C4.664075,10.5932667 5.6431375,8.04211515 7.33395,6.43169091 M0.1847625,13.3248424 L0.1847625,13.3264182 C0.1685125,16.9514485 1.5091375,20.3456303 3.861325,22.6367818 C6.152575,24.8688424 9.24495,26.0002364 13.049075,26.0002364 C22.305075,26.0002364 25.616825,19.1779939 25.6403875,13.334297 C25.655825,9.58714545 24.3290125,6.1386 22.0020125,3.87108485 C19.78795,1.71623636 16.7776375,0.623448485 13.049075,0.623448485 C4.241575,0.62029697 0.2416375,6.99975152 0.1847625,13.3248424" id="Fill-7" fill="#1D1D1B" mask="url(#mask-2)"></path>
                        </g>
                        <polygon id="Fill-10" fill="#1D1D1B" points="0 2 0 25.9992147 4 26 4 2"></polygon>
                        <polygon id="Fill-12" fill="#D01325" points="22 2.00235679 16.6297895 2 4 13.8232406 16.5779817 26 21.9239072 26 9.38478144 13.8295254"></polygon>
                        <g id="Group-16" transform="translate(103.000000, 0.000000)">
                            <mask id="mask-4" fill="white">
                                <use xlink:href="#path-3"></use>
                            </mask>
                            <g id="Clip-15"></g>
                            <path d="M7.6295375,6.48262059 C9.0806625,5.08815 11.021725,4.39329706 13.3982875,4.41791471 C20.982975,4.47588529 21.5249125,11.4085324 21.509475,13.5320029 C21.4981,15.6356206 20.872475,22.4960029 13.3300375,22.4960029 C10.8762875,22.4944147 8.899475,21.7749441 7.4589125,20.3598265 C5.850975,18.7803265 4.937725,16.2923559 4.9515375,13.5312088 C4.9661625,10.67715 5.941975,8.10897353 7.6295375,6.48262059 M0.5185375,13.4303559 C0.5185375,13.4708559 0.5161,13.51215 0.5161,13.5518559 C0.5161,17.1452382 1.8412875,20.5099147 4.1601625,22.7953853 C6.45385,25.0562382 9.55435,26.2045324 13.377975,26.2061206 C22.607975,26.2029441 25.9189125,19.3250912 25.9481625,13.4351206 C25.9766,9.67100294 24.6579125,6.19673824 22.3309125,3.90332647 C20.115225,1.72426765 17.105725,0.618855882 13.377975,0.618855882 C4.53635,0.618855882 0.5477875,7.05438529 0.5185375,13.4303559" id="Fill-14" fill="#1D1D1B" mask="url(#mask-4)"></path>
                        </g>
                        <path d="M163.254083,5.75542251 C164.073312,5.75542251 169.417838,5.75699284 169.417838,5.75699284 C173.332903,5.75699284 175.672529,8.84816959 175.672529,14.0278732 C175.672529,19.1706743 173.332903,22.2430072 169.417838,22.2430072 L163.254083,22.2430072 L163.254083,5.75542251 Z M159,26 L169.417838,26 C174.534225,25.9992148 180,22.8522917 180,14.0278732 C180,10.0062813 178.909557,6.89233487 176.75659,4.77632741 C174.913128,2.96025125 172.376472,2.0039258 169.417838,2.0039258 L159,2 L159,26 Z" id="Fill-17" fill="#1D1D1B"></path>
                    </g>
                </g>
            </g>
        </g>
    </g>
</svg>